<mxfile host="app.diagrams.net" modified="2023-12-27T22:07:51.236Z" agent="Mozilla/5.0 (Windows NT 10.0; Win64; x64) AppleWebKit/537.36 (KHTML, like Gecko) Chrome/120.0.0.0 Safari/537.36" version="22.1.15" etag="QbHEip3rnHdrTR-q7MH0" type="github">
  <diagram name="Page-1" id="fEY876Ravk8czn6-3_wD">
    <mxGraphModel>
      <root>
        <mxCell id="0" />
        <mxCell id="1" parent="0" />
      </root>
    </mxGraphModel>
  </diagram>
</mxfile>
